<svg id="Camada_1" data-name="Camada 1" xmlns="http://www.w3.org/2000/svg" viewBox="0 0 224.16 220.43"><defs><style>.cls-1{fill:#ffde1c;}.cls-2{fill:#262626;}.cls-3{fill:#e94649;}</style></defs><title>logo</title><path class="cls-1" d="M70.26,73.45S60.39,15.37,89.43,14.79s48.79,39.49,48.79,39.49,144-65.63,58.66,63.31c0,0,116.73,110.35-47.63,66.21,0,0-97.57,135.32-83-33.11C66.2,150.69-56.35,116.43,70.26,73.45Z" transform="translate(-12.92 -14.78)"/><ellipse class="cls-2" cx="83.42" cy="126.63" rx="10.7" ry="16.56" transform="translate(-52.41 23.04) rotate(-20.77)"/><ellipse class="cls-2" cx="157.18" cy="105.14" rx="10.7" ry="16.56" transform="translate(-39.99 47.8) rotate(-20.77)"/><path class="cls-2" d="M97.56,114.69s26.53-8.09,37.75-13.94A43.74,43.74,0,0,1,141,118.82c.42,5.28,1.4,17.24-5.67,22-5.28,3.55-12.37,1.29-15,.44C104.41,136.2,98.53,117.87,97.56,114.69Z" transform="translate(-12.92 -14.78)"/><path class="cls-3" d="M114.32,138.51a94.53,94.53,0,0,1,10.32-9.41A93.39,93.39,0,0,1,141,118.82a42.62,42.62,0,0,1,.25,8c-.21,3.43-.36,5.9-1.76,8.75a12.77,12.77,0,0,1-4.16,5.22c-3.12,2.19-6.49,2.09-8.71,2A22.16,22.16,0,0,1,114.32,138.51Z" transform="translate(-12.92 -14.78)"/></svg>